<svg version="1.1" xmlns="http://www.w3.org/2000/svg" xmlns:xlink="http://www.w3.org/1999/xlink" x="0px" y="0px" width="266px" height="60px" viewBox="0 0 266 60" enable-background="new 0 0 266 60" xml:space="preserve">
<g>
<path fill-rule="evenodd" clip-rule="evenodd" fill="#007DC3" d="M28.357,34.387l8.41,21.083h12.77
c2.869,0,5.158-2.289,5.158-5.155V7.927c0-2.866-2.289-5.155-5.158-5.155H35.73l-7.349,15.855l10.506,11.541L28.357,34.387z
M7.2,2.771c-2.867,0-5.157,2.289-5.157,5.155v42.388c0,2.866,2.29,5.155,5.157,5.155h27.447L15.201,39.662l13.156-5.275
L15.729,2.771H7.2z"></path>
<polygon fill-rule="evenodd" clip-rule="evenodd" points="36.093,2 28.646,18.025 28.382,18.627 28.791,19.108 38.888,30.168
29.226,34.023 28.357,34.387 28.719,35.277 37.804,58 39.586,57.302 30.84,35.471 40.887,31.423 42.141,30.938 41.225,29.903
30.646,18.241 37.851,2.771 	"></polygon>
<g>
<polygon fill="#FFFFFF" points="66.979,6.879 66.979,9.313 66.969,9.324 66.979,9.334 66.979,51.366 73.335,51.366 73.335,16.341
105.112,51.355 105.112,51.366 111.468,51.366 111.468,6.879 105.112,6.879 105.112,41.896 73.335,6.879 		"></polygon>
<path fill="#FFFFFF" d="M130.521,6.875c-7.015,0-12.71,5.694-12.71,12.709v19.065c0,7.018,5.695,12.712,12.71,12.712h19.055
c7.016,0,12.71-5.694,12.71-12.712h-6.354c0,3.508-2.849,6.356-6.356,6.356h-19.055c-3.508,0-6.355-2.849-6.355-6.356V19.584
c0-3.507,2.848-6.355,6.355-6.355h19.055c3.33,0.002,6.079,2.533,6.344,5.853l0.013,0.503h6.354l-0.034-1.021
c-0.53-6.637-6.018-11.688-12.676-11.688H130.521z"></path>
<path fill="#FFFFFF" d="M174.992,13.234h25.422c3.33,0,6.068,2.532,6.332,5.852l0.023,0.505v19.065
c0,3.508-2.849,6.355-6.355,6.355h-25.422V13.234z M168.639,6.879v44.487h31.775c7.015,0,12.711-5.695,12.711-12.71V19.591
l-0.046-1.021c-0.53-6.637-6.005-11.691-12.665-11.691H168.639z"></path>
<path fill="#FFFFFF" d="M232.192,6.875c-7.017,0-12.711,5.694-12.711,12.709v19.065c0,7.018,5.694,12.712,12.711,12.712h19.053
c7.018,0,12.712-5.694,12.712-12.712h-6.355c0,3.508-2.849,6.356-6.356,6.356h-19.053c-3.507,0-6.355-2.849-6.355-6.356V19.584
c0-3.507,2.849-6.355,6.355-6.355h19.053c3.33,0.002,6.079,2.533,6.346,5.853l0.011,0.503h6.355l-0.033-1.021
c-0.531-6.637-6.019-11.688-12.679-11.688H232.192z"></path>
</g>
</g>
</svg>